<svg xmlns="http://www.w3.org/2000/svg" width="144" height="32" viewBox="0 0 144 32">
    <g fill="#252626" fill-rule="evenodd">
        <path d="M16.914 24.152c.423 0 .676-.005 1.52-.005.842 0 3.679-.171 3.679-3.038 0-2.171-1.292-3.26-3.868-3.26H4.923c-.423 0-.77.367-.77.81v4.683c0 .448.347.81.77.81h11.99zm.29-9.693c.42 0 1.107-.055 1.525-.122 0 0 1.051-.175 1.713-.77.663-.595.994-1.32.994-2.174 0-.915-.3-1.644-.888-2.19-.593-.542-1.404-.812-2.431-.812H4.923c-.423 0-.77.364-.77.81v4.45c0 .443.347.808.77.808h12.28zm4.875 1.468c2.432.873 3.648 2.774 3.648 5.7 0 3.946-2.697 5.916-8.09 5.916H1.36c-.418 0-.766-.366-.766-.807V5.81c0-.444.348-.809.766-.809h15.77c1.767 0 4.417.314 5.89 1.682 1.22 1.144 1.858 2.614 1.858 4.485 0 2.051-.932 3.637-2.8 4.758zM54.534 16.243c0-2.647-1.067-4.79-3.201-6.442-1.839-1.413-4.122-2.125-6.848-2.125-2.983 0-5.415.81-7.295 2.426-1.878 1.613-2.818 3.662-2.818 6.141 0 2.562.92 4.632 2.76 6.206 1.838 1.573 4.288 2.359 7.353 2.359 3.043 0 5.479-.79 7.309-2.372 1.828-1.586 2.74-3.65 2.74-6.193m3.672 0c0 3.695-1.438 6.683-4.315 8.966-2.526 1.991-5.66 2.988-9.406 2.988-3.789 0-6.943-1.004-9.463-3.019-2.879-2.282-4.32-5.258-4.32-8.935 0-3.613 1.46-6.58 4.382-8.905 2.555-2.034 5.696-3.051 9.4-3.051 3.727 0 6.854 1.017 9.376 3.05 2.9 2.326 4.346 5.293 4.346 8.906M113.376 26.736c0 .442-.349.807-.768.807H91.742c-.424 0-.769-.365-.769-.807V5.812c0-.445.345-.81.769-.81h20.036c.422 0 .772.365.772.81v1.77c0 .445-.35.81-.772.81h-16.48c-.416 0-.766.363-.766.809v4.15c0 .444.35.808.766.808h13.789c.417 0 .762.366.762.814v1.768c0 .448-.345.812-.762.812H95.298c-.416 0-.766.365-.766.807v4.983c0 .447.35.809.766.809h17.31c.419 0 .768.365.768.812v1.772M134.76 15.587c.424 0 1.107-.094 1.513-.208 0 0 3.363-.947 3.363-3.264 0-2.483-1.477-3.723-4.428-3.723H123.52c-.427 0-.773.363-.773.809v5.578c0 .444.346.808.773.808h11.24zm8.258 11.295c.238.363.091.661-.333.661h-2.577c-.425 0-.969-.298-1.214-.66l-4.908-7.244c-.245-.36-.791-.663-1.217-.663h-9.249c-.427 0-.773.366-.773.813v6.947c0 .442-.344.807-.769.807h-2.02c-.424 0-.767-.365-.767-.807V5.812c0-.445.343-.81.768-.81h15.32c.423 0 1.109.053 1.525.122 0 0 3.244.516 4.527 1.793 1.278 1.278 1.918 3.007 1.918 5.187 0 1.907-.52 3.444-1.56 4.603-.958 1.08-2.283 1.767-3.967 2.058l5.296 8.117zM85.705 26.638c.135.14.226.287.228.47-.009.323-.313.443-.592.443h-2.97c-.494-.008-1.097-.261-1.448-.62l-7.627-7.909a.55.55 0 0 0-.807.004l-7.59 7.904c-.357.357-.956.613-1.446.621H60.43c-.286 0-.586-.12-.596-.443.003-.183.097-.33.235-.47l9.877-10.12a.596.596 0 0 0 0-.828l-9.415-9.777c-.134-.143-.226-.289-.232-.473.008-.324.315-.447.596-.447h2.99c.494.007 1.096.268 1.445.626l7.175 7.508a.56.56 0 0 0 .403.171.57.57 0 0 0 .398-.171l7.133-7.508c.35-.358.95-.62 1.446-.626h3.021c.28 0 .584.123.593.447-.003.184-.091.328-.228.473l-9.404 9.775a.597.597 0 0 0 .002.83l9.836 10.117"/>
    </g>
</svg>
