<?xml version="1.0" encoding="UTF-8" standalone="no"?>
<svg width="129px" height="32px" viewBox="0 0 129 32" version="1.1" xmlns="http://www.w3.org/2000/svg" xmlns:xlink="http://www.w3.org/1999/xlink" xmlns:sketch="http://www.bohemiancoding.com/sketch/ns">
    <!-- Generator: Sketch 3.4.4 (17248) - http://www.bohemiancoding.com/sketch -->
    <title>logo inv</title>
    <desc>Created with Sketch.</desc>
    <defs></defs>
    <g id="start" stroke="none" stroke-width="1" fill="none" fill-rule="evenodd" sketch:type="MSPage">
        <g id="start_kg_04a_med" sketch:type="MSArtboardGroup" transform="translate(-24.000000, -3362.000000)">
            <g id="footer" sketch:type="MSLayerGroup" transform="translate(0.000000, 2970.000000)">
                <g id="footer-smallprint" transform="translate(24.000000, 392.000000)" sketch:type="MSShapeGroup">
                    <g id="logo-inv">
                        <path d="M31.2414037,28.9661252 C31.2414037,30.6169718 29.9030969,31.9552785 28.2522503,31.9552785 C26.6014037,31.9552785 25.2632933,30.6169718 25.2632933,28.9661252 C25.2632933,27.3152785 26.6014037,25.9769718 28.2522503,25.9769718 C29.9030969,25.9769718 31.2414037,27.3152785 31.2414037,28.9661252" id="Fill-77" fill="#FFCD00"></path>
                        <path d="M43.197762,28.9661252 C43.197762,30.6169718 41.8594552,31.9552785 40.2086086,31.9552785 C38.557762,31.9552785 37.2196515,30.6169718 37.2196515,28.9661252 C37.2196515,27.3152785 38.557762,25.9769718 40.2086086,25.9769718 C41.8594552,25.9769718 43.197762,27.3152785 43.197762,28.9661252" id="Fill-79" fill="#019940"></path>
                        <path d="M55.1541399,28.9661252 C55.1541399,30.6169718 53.8158331,31.9552785 52.1649865,31.9552785 C50.5141399,31.9552785 49.1760294,30.6169718 49.1760294,28.9661252 C49.1760294,27.3152785 50.5141399,25.9769718 52.1649865,25.9769718 C53.8158331,25.9769718 55.1541399,27.3152785 55.1541399,28.9661252" id="Fill-81" fill="#00C3FF"></path>
                        <path d="M67.1104982,28.9661252 C67.1104982,30.6169718 65.7721914,31.9552785 64.1213448,31.9552785 C62.4704982,31.9552785 61.1323877,30.6169718 61.1323877,28.9661252 C61.1323877,27.3152785 62.4704982,25.9769718 64.1213448,25.9769718 C65.7721914,25.9769718 67.1104982,27.3152785 67.1104982,28.9661252" id="Fill-83" fill="#0F5AB9"></path>
                        <path d="M79.0668761,28.9661252 C79.0668761,30.6169718 77.7285693,31.9552785 76.0777227,31.9552785 C74.4268761,31.9552785 73.0887656,30.6169718 73.0887656,28.9661252 C73.0887656,27.3152785 74.4268761,25.9769718 76.0777227,25.9769718 C77.7285693,25.9769718 79.0668761,27.3152785 79.0668761,28.9661252" id="Fill-85" fill="#A064DC"></path>
                        <path d="M91.023254,28.9661252 C91.023254,30.6169718 89.6849472,31.9552785 88.0341006,31.9552785 C86.383254,31.9552785 85.0451436,30.6169718 85.0451436,28.9661252 C85.0451436,27.3152785 86.383254,25.9769718 88.0341006,25.9769718 C89.6849472,25.9769718 91.023254,27.3152785 91.023254,28.9661252" id="Fill-87" fill="#FF55AA"></path>
                        <path d="M102.979612,28.9661252 C102.979612,30.6169718 101.641306,31.9552785 99.9904589,31.9552785 C98.3396123,31.9552785 97.0015018,30.6169718 97.0015018,28.9661252 C97.0015018,27.3152785 98.3396123,25.9769718 99.9904589,25.9769718 C101.641306,25.9769718 102.979612,27.3152785 102.979612,28.9661252" id="Fill-89" fill="#FF2D1E"></path>
                        <path d="M84.4126429,7.41392883 L72.846508,7.41392883 L72.846508,0.344284663 L70.2757104,0.344284663 L70.2757104,18.3396712 L72.846508,18.3396712 L72.846508,9.85613742 L84.4126429,9.85613742 L84.4126429,18.3396712 L86.9834405,18.3396712 L86.9834405,0.344284663 L84.4126429,0.344284663 L84.4126429,7.41392883 Z" id="Fill-91" fill="#000000"></path>
                        <path d="M9.38801472,2.66047607 C11.2300761,2.66047607 12.9005546,3.40982577 14.1102724,4.61973988 L15.9321129,2.79789939 C14.2573153,1.12310184 11.9436957,0.0873226994 9.38801472,0.0873226994 C4.27684908,0.0873226994 0.133339877,4.2308319 0.133339877,9.34199755 C0.133339877,14.4531632 4.27684908,18.5966724 9.38801472,18.5966724 C11.9436957,18.5966724 14.2573153,17.5608933 15.9321129,15.8860957 L14.1102724,14.0642552 C12.9005546,15.2741693 11.2300761,16.023519 9.38801472,16.023519 C5.70389202,16.023519 2.70649325,13.0261202 2.70649325,9.34199755 C2.70649325,5.65787485 5.70389202,2.66047607 9.38801472,2.66047607" id="Fill-93" fill="#000000"></path>
                        <path d="M28.1394454,16.023519 C24.4553227,16.023519 21.4579239,13.0261202 21.4579239,9.34199755 C21.4579239,5.65787485 24.4553227,2.66047607 28.1394454,2.66047607 C31.8235681,2.66047607 34.8209669,5.65787485 34.8209669,9.34199755 C34.8209669,13.0261202 31.8235681,16.023519 28.1394454,16.023519 M28.1394454,0.0873226994 C23.0282798,0.0873226994 18.8847706,4.2308319 18.8847706,9.34199755 C18.8847706,14.4531632 23.0282798,18.5966724 28.1394454,18.5966724 C33.250611,18.5966724 37.3941202,14.4531632 37.3941202,9.34199755 C37.3941202,4.2308319 33.250611,0.0873226994 28.1394454,0.0873226994" id="Fill-95" fill="#000000"></path>
                        <path d="M92.7183509,18.3396712 L105.666964,18.3396712 L105.666964,15.8974626 L95.2891485,15.8974626 L95.2891485,9.85613742 L103.853762,9.85613742 L103.853762,7.41392883 L95.2891485,7.41392883 L95.2891485,2.78649325 L105.666964,2.78649325 L105.666964,0.344284663 L92.7183509,0.344284663 L92.7183509,18.3396712 Z" id="Fill-97" fill="#000000"></path>
                        <path d="M49.7040883,6.09562699 L43.7322601,0.344265031 L41.3503215,0.344265031 L41.3503215,18.3396515 L43.9209227,18.3396515 L43.9209227,4.30853497 L49.7040883,9.8582773 L55.487254,4.30853497 L55.487254,18.3396515 L58.0578552,18.3396515 L58.0578552,0.344265031 L55.6759166,0.344265031 L49.7040883,6.09562699 Z" id="Fill-99" fill="#000000"></path>
                        <path d="M125.72749,0.34436319 L119.755661,6.09572515 L113.784029,0.34436319 L111.401894,0.34436319 L111.401894,18.3397497 L113.972692,18.3397497 L113.972692,4.30863313 L119.755661,9.85817914 L125.538827,4.30863313 L125.538827,18.3397497 L128.109428,18.3397497 L128.109428,0.34436319 L125.72749,0.34436319 Z" id="Fill-101" fill="#000000"></path>
                    </g>
                </g>
            </g>
        </g>
    </g>
</svg>
